<svg width="22" height="22" viewBox="0 0 22 22" fill="none" xmlns="http://www.w3.org/2000/svg">
<path d="M16.4998 5.50004H14.6665C14.6665 3.47421 13.0257 1.83337 10.9998 1.83337C8.974 1.83337 7.33317 3.47421 7.33317 5.50004H5.49984C4.4915 5.50004 3.6665 6.32504 3.6665 7.33337V18.3334C3.6665 19.3417 4.4915 20.1667 5.49984 20.1667H16.4998C17.5082 20.1667 18.3332 19.3417 18.3332 18.3334V7.33337C18.3332 6.32504 17.5082 5.50004 16.4998 5.50004ZM10.9998 3.66671C12.0082 3.66671 12.8332 4.49171 12.8332 5.50004H9.1665C9.1665 4.49171 9.9915 3.66671 10.9998 3.66671ZM16.4998 18.3334H5.49984V7.33337H7.33317V9.16671C7.33317 9.67087 7.74567 10.0834 8.24984 10.0834C8.754 10.0834 9.1665 9.67087 9.1665 9.16671V7.33337H12.8332V9.16671C12.8332 9.67087 13.2457 10.0834 13.7498 10.0834C14.254 10.0834 14.6665 9.67087 14.6665 9.16671V7.33337H16.4998V18.3334Z" fill="#333333"/>
</svg>
