<svg width="38" height="38" viewBox="0 0 38 38" fill="none" xmlns="http://www.w3.org/2000/svg">
<circle cx="19" cy="19" r="18.5" stroke="#E0E0E0"/>
<path d="M26.4993 14H22.3327V12.6083C22.3131 12.0749 22.0829 11.5709 21.6923 11.2069C21.3018 10.8429 20.7829 10.6487 20.2493 10.6667H17.7493C17.2158 10.6487 16.6969 10.8429 16.3064 11.2069C15.9158 11.5709 15.6856 12.0749 15.666 12.6083V14H11.4993C11.2783 14 11.0664 14.0878 10.9101 14.2441C10.7538 14.4004 10.666 14.6123 10.666 14.8333C10.666 15.0544 10.7538 15.2663 10.9101 15.4226C11.0664 15.5789 11.2783 15.6667 11.4993 15.6667H12.3327V24.8333C12.3327 25.4964 12.5961 26.1323 13.0649 26.6011C13.5338 27.07 14.1696 27.3333 14.8327 27.3333H23.166C23.8291 27.3333 24.4649 27.07 24.9338 26.6011C25.4026 26.1323 25.666 25.4964 25.666 24.8333V15.6667H26.4993C26.7204 15.6667 26.9323 15.5789 27.0886 15.4226C27.2449 15.2663 27.3327 15.0544 27.3327 14.8333C27.3327 14.6123 27.2449 14.4004 27.0886 14.2441C26.9323 14.0878 26.7204 14 26.4993 14ZM17.3327 12.6083C17.3327 12.475 17.5077 12.3333 17.7493 12.3333H20.2493C20.491 12.3333 20.666 12.475 20.666 12.6083V14H17.3327V12.6083ZM23.9993 24.8333C23.9993 25.0544 23.9116 25.2663 23.7553 25.4226C23.599 25.5789 23.387 25.6667 23.166 25.6667H14.8327C14.6117 25.6667 14.3997 25.5789 14.2434 25.4226C14.0871 25.2663 13.9993 25.0544 13.9993 24.8333V15.6667H23.9993V24.8333Z" fill="#BDBDBD"/>
</svg>
