<svg width="36" height="35" viewBox="0 0 36 35" fill="none" xmlns="http://www.w3.org/2000/svg">
<path fill-rule="evenodd" clip-rule="evenodd" d="M5.93032 17.4609C5.93032 11.032 11.2411 5.8203 17.7922 5.8203C24.3434 5.8203 29.6542 11.032 29.6542 17.4609C29.6542 23.8898 24.3434 29.1015 17.7922 29.1015C11.2411 29.1015 5.93032 23.8898 5.93032 17.4609ZM17.7922 2.91016C9.6033 2.91016 2.96484 9.42474 2.96484 17.4609C2.96484 25.497 9.6033 32.0116 17.7922 32.0116C25.9812 32.0116 32.6197 25.497 32.6197 17.4609C32.6197 9.42474 25.9812 2.91016 17.7922 2.91016ZM11.8613 16.0058C11.0424 16.0058 10.3785 16.6573 10.3785 17.4609C10.3785 18.2645 11.0424 18.916 11.8613 18.916H23.7232C24.5421 18.916 25.2059 18.2645 25.2059 17.4609C25.2059 16.6573 24.5421 16.0058 23.7232 16.0058H11.8613Z" fill="#4F4F4F"/>
</svg>
