<svg width="36" height="35" viewBox="0 0 36 35" fill="none" xmlns="http://www.w3.org/2000/svg">
<path fill-rule="evenodd" clip-rule="evenodd" d="M5.93033 17.4609C5.93033 11.032 11.2411 5.8203 17.7923 5.8203C24.3434 5.8203 29.6542 11.032 29.6542 17.4609C29.6542 23.8898 24.3434 29.1015 17.7923 29.1015C11.2411 29.1015 5.93033 23.8898 5.93033 17.4609ZM17.7923 2.91016C9.6033 2.91016 2.96484 9.42474 2.96484 17.4609C2.96484 25.497 9.6033 32.0116 17.7923 32.0116C25.9812 32.0116 32.6197 25.497 32.6197 17.4609C32.6197 9.42474 25.9812 2.91016 17.7923 2.91016ZM17.7923 24.7363C16.9734 24.7363 16.3095 24.0848 16.3095 23.2812V18.916H11.8613C11.0424 18.916 10.3785 18.2645 10.3785 17.4609C10.3785 16.6573 11.0424 16.0058 11.8613 16.0058H16.3095V11.6406C16.3095 10.837 16.9734 10.1855 17.7923 10.1855C18.6111 10.1855 19.275 10.837 19.275 11.6406V16.0058H23.7232C24.5421 16.0058 25.206 16.6573 25.206 17.4609C25.206 18.2645 24.5421 18.916 23.7232 18.916H19.275V23.2812C19.275 24.0848 18.6111 24.7363 17.7923 24.7363Z" fill="#4F4F4F"/>
</svg>
