<svg width="70" height="70" viewBox="0 0 70 70" fill="none" xmlns="http://www.w3.org/2000/svg">
<g opacity="0.5">
<circle opacity="0.4" cx="35" cy="35" r="25" fill="#F2F2F2"/>
<path d="M34.4762 40.5625L40.4527 35.3766C40.5068 35.3297 40.5502 35.2718 40.5799 35.2067C40.6096 35.1416 40.625 35.0708 40.625 34.9993C40.625 34.9277 40.6096 34.857 40.5799 34.7919C40.5502 34.7268 40.5068 34.6688 40.4527 34.6219L34.4762 29.4375C34.4581 29.4219 34.436 29.4117 34.4124 29.4083C34.3888 29.4048 34.3646 29.4083 34.3429 29.4181C34.3212 29.428 34.3027 29.4439 34.2898 29.464C34.2768 29.4841 34.2699 29.5074 34.2699 29.5313L34.2699 30.7969C34.2699 30.8688 34.3012 30.9375 34.3558 30.986L38.298 34.4063L29.4996 34.4063C29.4308 34.4063 29.3746 34.4625 29.3746 34.5313L29.3746 35.4688C29.3746 35.5375 29.4308 35.5938 29.4996 35.5938L38.298 35.5938L34.3558 39.0141C34.3012 39.061 34.2699 39.1297 34.2699 39.2032L34.2699 40.4688C34.2699 40.575 34.3949 40.6329 34.4762 40.5625Z" fill="#333333"/>
</g>
</svg>
