<svg width="16" height="16" viewBox="0 0 16 16" fill="none" xmlns="http://www.w3.org/2000/svg">
<path d="M7.47664 13.5625L13.4532 8.37658C13.5073 8.3297 13.5507 8.27175 13.5804 8.20664C13.6101 8.14154 13.6255 8.0708 13.6255 7.99923C13.6255 7.92766 13.6101 7.85693 13.5804 7.79183C13.5507 7.72672 13.5073 7.66877 13.4532 7.62189L7.47664 2.43751C7.45863 2.42185 7.43649 2.41169 7.41286 2.40825C7.38924 2.40481 7.36512 2.40823 7.34339 2.41811C7.32166 2.42799 7.30322 2.44391 7.29028 2.46397C7.27734 2.48403 7.27043 2.50739 7.27039 2.53126L7.27039 3.79689C7.27039 3.86876 7.30164 3.93751 7.35633 3.98595L11.2985 7.40626L2.50008 7.40626C2.43133 7.40626 2.37508 7.46251 2.37508 7.53126L2.37508 8.46876C2.37508 8.53751 2.43133 8.59376 2.50008 8.59376L11.2985 8.59376L7.35633 12.0141C7.30164 12.061 7.27039 12.1297 7.27039 12.2031L7.27039 13.4688C7.27039 13.575 7.39539 13.6328 7.47664 13.5625Z" fill="#333333"/>
</svg>
