<svg width="46" height="46" viewBox="0 0 46 46" fill="none" xmlns="http://www.w3.org/2000/svg">
<g filter="url(#filter0_d_2_84)">
<circle cx="23" cy="19" r="19" fill="white"/>
<circle cx="23" cy="19" r="18.5" stroke="#828282" stroke-opacity="0.2"/>
<path d="M31.2012 15.6129C31.192 14.9187 31.062 14.2313 30.8172 13.5816C30.6048 13.0336 30.2805 12.5359 29.8649 12.1203C29.4493 11.7047 28.9516 11.3804 28.4036 11.168C27.7622 10.9273 27.0847 10.7971 26.3997 10.783C25.5179 10.7436 25.2383 10.7326 22.9998 10.7326C20.7613 10.7326 20.4744 10.7326 19.599 10.783C18.9144 10.7972 18.2371 10.9274 17.5961 11.168C17.048 11.3802 16.5502 11.7045 16.1346 12.1201C15.719 12.5357 15.3947 13.0335 15.1825 13.5816C14.9412 14.2225 14.8113 14.8999 14.7984 15.5845C14.759 16.4673 14.7471 16.7469 14.7471 18.9854C14.7471 21.2239 14.7471 21.5099 14.7984 22.3862C14.8122 23.0719 14.9414 23.7484 15.1825 24.3909C15.395 24.9389 15.7196 25.4365 16.1353 25.8519C16.551 26.2673 17.0489 26.5915 17.597 26.8036C18.2363 27.054 18.9137 27.1935 19.5999 27.2161C20.4827 27.2555 20.7622 27.2674 23.0007 27.2674C25.2392 27.2674 25.5262 27.2674 26.4016 27.2161C27.0865 27.2026 27.7641 27.0727 28.4054 26.832C28.9533 26.6194 29.4509 26.295 29.8664 25.8795C30.282 25.4639 30.6064 24.9663 30.819 24.4184C31.0601 23.7768 31.1893 23.1003 31.2031 22.4137C31.2425 21.5319 31.2544 21.2523 31.2544 19.0129C31.2526 16.7744 31.2526 16.4902 31.2012 15.6129V15.6129ZM22.9943 23.2185C20.6532 23.2185 18.7566 21.3219 18.7566 18.9808C18.7566 16.6396 20.6532 14.743 22.9943 14.743C24.1182 14.743 25.1961 15.1895 25.9909 15.9842C26.7856 16.779 27.2321 17.8569 27.2321 18.9808C27.2321 20.1047 26.7856 21.1826 25.9909 21.9773C25.1961 22.772 24.1182 23.2185 22.9943 23.2185V23.2185ZM27.4007 15.5744C26.8535 15.5744 26.4126 15.1326 26.4126 14.5863C26.4126 14.4566 26.4381 14.3281 26.4878 14.2083C26.5374 14.0885 26.6101 13.9796 26.7019 13.8879C26.7936 13.7961 26.9025 13.7234 27.0223 13.6737C27.1421 13.6241 27.2706 13.5986 27.4003 13.5986C27.53 13.5986 27.6584 13.6241 27.7783 13.6737C27.8981 13.7234 28.007 13.7961 28.0987 13.8879C28.1904 13.9796 28.2632 14.0885 28.3128 14.2083C28.3624 14.3281 28.388 14.4566 28.388 14.5863C28.388 15.1326 27.9462 15.5744 27.4007 15.5744Z" fill="#4F4F4F"/>
<path d="M22.9944 21.7335C24.5148 21.7335 25.7472 20.501 25.7472 18.9807C25.7472 17.4604 24.5148 16.228 22.9944 16.228C21.4741 16.228 20.2417 17.4604 20.2417 18.9807C20.2417 20.501 21.4741 21.7335 22.9944 21.7335Z" fill="#4F4F4F"/>
</g>
<defs>
<filter id="filter0_d_2_84" x="0" y="0" width="46" height="46" filterUnits="userSpaceOnUse" color-interpolation-filters="sRGB">
<feFlood flood-opacity="0" result="BackgroundImageFix"/>
<feColorMatrix in="SourceAlpha" type="matrix" values="0 0 0 0 0 0 0 0 0 0 0 0 0 0 0 0 0 0 127 0" result="hardAlpha"/>
<feOffset dy="4"/>
<feGaussianBlur stdDeviation="2"/>
<feComposite in2="hardAlpha" operator="out"/>
<feColorMatrix type="matrix" values="0 0 0 0 0 0 0 0 0 0 0 0 0 0 0 0 0 0 0.25 0"/>
<feBlend mode="normal" in2="BackgroundImageFix" result="effect1_dropShadow_2_84"/>
<feBlend mode="normal" in="SourceGraphic" in2="effect1_dropShadow_2_84" result="shape"/>
</filter>
</defs>
</svg>
