<svg width="34" height="22" viewBox="0 0 34 22" fill="none" xmlns="http://www.w3.org/2000/svg">
<path d="M15.8032 13.7422H14.3344L15.2524 8.1008H16.7213L15.8032 13.7422ZM13.0988 8.1008L11.6985 11.981L11.5328 11.1455L11.533 11.1458L11.0388 8.60875C11.0388 8.60875 10.979 8.1008 10.3421 8.1008H8.02716L8 8.19633C8 8.19633 8.7079 8.34361 9.53637 8.84114L10.8124 13.7424H12.3428L14.6795 8.1008H13.0988ZM24.6514 13.7422H26L24.8241 8.10065H23.6435C23.0982 8.10065 22.9654 8.52107 22.9654 8.52107L20.7749 13.7422H22.306L22.6122 12.9043H24.4793L24.6514 13.7422ZM23.0352 11.7467L23.8069 9.63551L24.241 11.7467H23.0352ZM20.8897 9.45744L21.0993 8.24597C21.0993 8.24597 20.4526 8 19.7783 8C19.0494 8 17.3186 8.31856 17.3186 9.8676C17.3186 11.325 19.3501 11.3431 19.3501 12.1087C19.3501 12.8742 17.5279 12.7371 16.9265 12.2543L16.7081 13.521C16.7081 13.521 17.364 13.8396 18.366 13.8396C19.3683 13.8396 20.8804 13.3206 20.8804 11.9081C20.8804 10.4413 18.8306 10.3048 18.8306 9.66704C18.8308 9.02917 20.2612 9.11111 20.8897 9.45744Z" fill="#4F4F4F"/>
<rect x="0.25" y="0.25" width="33.5" height="21.3396" rx="3.75" stroke="black" stroke-width="0.5"/>
</svg>
